<svg xmlns="http://www.w3.org/2000/svg" xmlns:xlink="http://www.w3.org/1999/xlink">
<symbol id="hide" viewBox="0 0 22 16">
  <path d="M11 13C12.3261 13 13.5979 12.4732 14.5355 11.5355C15.4732 10.5979 16 9.32608 16 8C16.0013 7.03225 15.7159 6.0858 15.18 5.28L18.76 1.71C18.8532 1.61676 18.9272 1.50607 18.9777 1.38425C19.0281 1.26243 19.0541 1.13186 19.0541 1C19.0541 0.868141 19.0281 0.737573 18.9777 0.615751C18.9272 0.493929 18.8532 0.383239 18.76 0.29C18.6668 0.196762 18.5561 0.122801 18.4342 0.072341C18.3124 0.0218806 18.1819 -0.00409126 18.05 -0.00409126C17.9181 -0.00409126 17.7876 0.0218806 17.6658 0.072341C17.5439 0.122801 17.4332 0.196762 17.34 0.29L13.72 3.87C12.9142 3.33406 11.9677 3.04874 11 3.05C9.6826 3.06318 8.42364 3.59577 7.49674 4.53203C6.56985 5.46829 6.04993 6.73254 6.05 8.05C6.04874 9.01775 6.33406 9.9642 6.87 10.77L3.29 14.29C3.1017 14.4783 2.99591 14.7337 2.99591 15C2.99591 15.2663 3.1017 15.5217 3.29 15.71C3.4783 15.8983 3.7337 16.0041 4 16.0041C4.2663 16.0041 4.5217 15.8983 4.71 15.71L8.28 12.13C9.08017 12.6836 10.0271 12.9865 11 13ZM14.05 8C14.0624 8.52006 13.9394 9.0344 13.693 9.49255C13.4465 9.95069 13.0852 10.3369 12.6445 10.6132C12.2038 10.8896 11.6988 11.0466 11.179 11.0688C10.6593 11.091 10.1427 10.9777 9.68 10.74L13.68 6.74C13.8934 7.12815 14.0196 7.55812 14.05 8ZM8 8C7.9876 7.47994 8.11064 6.9656 8.35705 6.50746C8.60345 6.04931 8.96476 5.66311 9.40549 5.38677C9.84623 5.11043 10.3512 4.95344 10.871 4.93122C11.3907 4.90899 11.9073 5.02229 12.37 5.26L8.37 9.26C8.15664 8.87185 8.03038 8.44188 8 8ZM2.3 12C1.68493 11.4004 1.14437 10.7289 0.69 10C0.277743 9.41085 0.0387171 8.71802 0 8C0.0113841 7.55618 0.117056 7.11985 0.31 6.72C0.517553 6.28138 0.765277 5.86293 1.05 5.47C1.75797 4.54554 2.58132 3.71547 3.5 3C5.60028 1.19948 8.23737 0.144645 11 4.76837e-07C11.7552 0.00252414 12.5074 0.0965428 13.24 0.280001C13.3718 0.307241 13.4967 0.360804 13.6073 0.437481C13.7179 0.514159 13.8119 0.612373 13.8837 0.72624C13.9554 0.840106 14.0034 0.967283 14.0248 1.10015C14.0463 1.23302 14.0406 1.36884 14.0083 1.49948C13.976 1.63013 13.9176 1.7529 13.8367 1.86045C13.7558 1.968 13.6541 2.05811 13.5375 2.12539C13.4209 2.19267 13.292 2.23572 13.1584 2.25198C13.0248 2.26824 12.8893 2.25736 12.76 2.22C12.1839 2.07858 11.5932 2.00475 11 2C9.49894 2.0468 8.03247 2.46236 6.73 3.21C5.45659 3.91036 4.30226 4.80817 3.31 5.87C2.8406 6.36287 2.44636 6.92221 2.14 7.53C2.06869 7.67825 2.02143 7.8369 2 8C2.05785 8.33862 2.19114 8.65989 2.39 8.94C2.76294 9.52248 3.20258 10.0594 3.7 10.54C3.89361 10.7257 4.00554 10.9806 4.01116 11.2488C4.01679 11.517 3.91565 11.7764 3.73 11.97C3.54435 12.1636 3.28939 12.2755 3.02121 12.2812C2.75304 12.2868 2.49361 12.1857 2.3 12ZM22 8C21.9886 8.44382 21.8829 8.88015 21.69 9.28C21.4984 9.71674 21.2674 10.1351 21 10.53C20.2766 11.4576 19.4363 12.2878 18.5 13C16.3997 14.8005 13.7626 15.8554 11 16C10.2448 15.9975 9.49262 15.9035 8.76 15.72C8.51165 15.6482 8.30074 15.4831 8.17151 15.2592C8.04228 15.0353 8.00478 14.7701 8.06687 14.5191C8.12896 14.2682 8.28581 14.051 8.50453 13.9132C8.72325 13.7754 8.98684 13.7277 9.24 13.78C9.81614 13.9214 10.4068 13.9952 11 14C12.5011 13.9532 13.9675 13.5376 15.27 12.79C16.5434 12.0896 17.6977 11.1918 18.69 10.13C19.1594 9.63713 19.5536 9.07779 19.86 8.47C19.9313 8.32176 19.9786 8.1631 20 8C19.966 7.68202 19.8563 7.37682 19.68 7.11C19.36 6.56839 18.9624 6.07652 18.5 5.65C18.307 5.46933 18.1933 5.21956 18.184 4.95532C18.1746 4.69109 18.2702 4.43389 18.45 4.24C18.6307 4.04696 18.8804 3.93332 19.1447 3.92395C19.4089 3.91458 19.6661 4.01024 19.86 4.19C20.4719 4.75325 20.9976 5.40357 21.42 6.12C21.7631 6.6903 21.9621 7.33555 22 8Z"/>
</symbol>
<symbol id="show" viewBox="0 0 22 16">
  <path d="M11 3.1C10.0309 3.1 9.08351 3.38738 8.27771 3.9258C7.47191 4.46422 6.84386 5.22949 6.47299 6.12485C6.10212 7.02021 6.00508 8.00543 6.19415 8.95594C6.38322 9.90645 6.8499 10.7795 7.53518 11.4648C8.22045 12.1501 9.09355 12.6168 10.0441 12.8058C10.9946 12.9949 11.9798 12.8979 12.8751 12.527C13.7705 12.1561 14.5358 11.5281 15.0742 10.7223C15.6126 9.91649 15.9 8.96913 15.9 8C15.9 6.70044 15.3838 5.45411 14.4648 4.53518C13.5459 3.61625 12.2996 3.1 11 3.1ZM11 11.1C10.3869 11.1 9.78752 10.9182 9.27773 10.5776C8.76794 10.2369 8.3706 9.75277 8.13597 9.18632C7.90134 8.61987 7.83995 7.99656 7.95957 7.39522C8.07918 6.79388 8.37443 6.24151 8.80797 5.80797C9.24151 5.37443 9.79388 5.07918 10.3952 4.95957C10.9966 4.83995 11.6199 4.90134 12.1863 5.13597C12.7528 5.3706 13.2369 5.76794 13.5776 6.27773C13.9182 6.78752 14.1 7.38688 14.1 8C14.1 8.82217 13.7734 9.61067 13.192 10.192C12.6107 10.7734 11.8222 11.1 11 11.1ZM21.69 6.72C21.2982 5.9136 20.7857 5.17172 20.17 4.52C19.0105 3.2881 17.6598 2.25144 16.17 1.45C14.5916 0.550088 12.8162 0.0521338 11 0C8.23737 0.144645 5.60028 1.19948 3.5 3C2.57943 3.72473 1.75599 4.56497 1.05 5.5C0.765277 5.89293 0.517553 6.31138 0.31 6.75C0.121136 7.14067 0.0155688 7.56635 0 8C0.0113841 8.44382 0.117056 8.88015 0.31 9.28C0.701776 10.0864 1.21435 10.8283 1.83 11.48C2.98946 12.7119 4.34016 13.7486 5.83 14.55C7.40838 15.4499 9.18385 15.9479 11 16C13.7626 15.8554 16.3997 14.8005 18.5 13C19.4363 12.2878 20.2766 11.4576 21 10.53C21.2847 10.1371 21.5324 9.71862 21.74 9.28C21.9157 8.87636 22.0043 8.4402 22 8C21.9886 7.55618 21.8829 7.11985 21.69 6.72ZM19.86 8.47C19.5536 9.07779 19.1594 9.63713 18.69 10.13C17.6977 11.1918 16.5434 12.0896 15.27 12.79C13.9675 13.5376 12.5011 13.9532 11 14C8.6965 13.8609 6.50166 12.9724 4.75 11.47C3.96957 10.8544 3.27063 10.142 2.67 9.35C2.46562 9.07428 2.28814 8.7796 2.14 8.47C2.06869 8.32176 2.02143 8.1631 2 8C2.02143 7.8369 2.06869 7.67824 2.14 7.53C2.44636 6.92221 2.8406 6.36287 3.31 5.87C4.30226 4.80817 5.45659 3.91036 6.73 3.21C8.03247 2.46236 9.49894 2.0468 11 2C13.3035 2.13914 15.4983 3.02761 17.25 4.53C18.0304 5.1456 18.7294 5.85799 19.33 6.65C19.5344 6.92572 19.7119 7.2204 19.86 7.53C19.9313 7.67824 19.9786 7.8369 20 8C19.9786 8.1631 19.9313 8.32176 19.86 8.47Z"/>

</symbol>
</svg>